<svg height="800px" width="800px" xmlns="http://www.w3.org/2000/svg" xmlns:xlink="http://www.w3.org/1999/xlink" viewBox="0 0 512 512" xml:space="preserve">
<path style="fill:#acbea3;" d="M256,133.565c-27.619,0-50.087-22.468-50.087-50.087c0-8.761,2.304-17.397,6.674-24.973 l28.957-50.157C244.521,3.184,250.033,0,256,0c5.967,0,11.478,3.184,14.456,8.348l28.946,50.147c0,0.006,0.011,0.006,0.011,0.006 c4.37,7.581,6.674,16.217,6.674,24.978C306.087,111.097,283.619,133.565,256,133.565z"/>
<path style="fill:#acbea3;" d="M306.087,83.478c0-8.761-2.304-17.397-6.674-24.978c0,0-0.011,0-0.011-0.006L270.456,8.348 C267.478,3.184,261.967,0,256,0v133.565C283.619,133.565,306.087,111.097,306.087,83.478z" />
<path style="fill:#ffffff;" d="M256,172.522c-9.217,0-16.696-7.473-16.696-16.696V116.87c0-9.223,7.479-16.696,16.696-16.696 s16.696,7.473,16.696,16.696v38.957C272.696,165.049,265.217,172.522,256,172.522z" />
<path style="fill:#ffffff;" d="M272.696,155.826V116.87c0-9.223-7.479-16.696-16.696-16.696v72.348 C265.217,172.522,272.696,165.049,272.696,155.826z"/>
<path style="fill:#0f403f;" d="M406.261,194.783v86.706c-33.723,11.5-54.593-15.971-69.565-30.943 c-7.791-7.903-18.475-6.678-24.375-0.779c-19.098,19.098-29.855,34.17-54.985,34.17c-25.376,0-38.179-17.363-54.985-34.17 c-6.343-6.344-17.362-6.233-23.595,0c-16.003,16.003-37.469,44.771-73.017,30.831v-85.816c0-27.603,22.483-50.087,50.087-50.087 h200.348C383.777,144.696,406.261,167.179,406.261,194.783z"/>
<path style="fill:#0f403f;" d="M356.174,144.696H256v139.126c0.464,0.012,0.863,0.116,1.336,0.116 c25.129,0,35.887-15.073,54.985-34.17c5.899-5.899,16.584-7.123,24.375,0.779c14.973,14.97,35.842,42.443,69.565,30.943v-86.706 C406.261,167.179,383.777,144.696,356.174,144.696z"/>
<path style="fill:#acbea3;" d="M406.261,242.198v86.15c0,9.238-7.456,16.696-16.696,16.696h-267.13 c-9.239,0-16.696-7.457-16.696-16.696v-88.821l6.234,6.233c6.343,6.234,17.362,6.234,23.595,0 c5.454-5.454,13.358-13.357,19.59-19.588c9.462-9.461,22.038-14.692,35.396-14.692c13.358,0,25.934,5.231,35.396,14.692 l19.59,19.588c2.783,2.783,6.677,4.341,10.462,4.563c4.785,0.445,9.683-1.113,13.133-4.563l19.59-19.588 c9.462-9.461,22.038-14.692,35.396-14.692s25.934,5.231,35.396,14.692c14.024,14.023,10.685,10.685,19.59,19.588 c6.343,6.234,17.362,6.234,23.595,0L406.261,242.198z"/>
<path style="fill:#acbea3;" d="M406.261,242.198v86.15c0,9.238-7.456,16.696-16.696,16.696H256v-94.72
	c4.785,0.445,9.683-1.113,13.133-4.563l19.59-19.588c9.462-9.461,22.038-14.692,35.396-14.692s25.934,5.231,35.396,14.692
	c14.024,14.023,10.685,10.685,19.59,19.588c6.343,6.234,17.362,6.234,23.595,0L406.261,242.198z" />
                <path style="fill:#0f403f;" d="M473.043,361.739v58.546l-3.563-3.562c-6.232-6.344-17.251-6.344-23.595,0l-19.59,19.59
	c-9.462,9.461-22.038,14.581-35.396,14.581c-25.043,0-37.51-16.696-54.205-33.391c-7.791-7.903-18.475-6.678-24.375-0.779
	l-19.59,19.59c-9.462,9.461-22.038,14.581-35.396,14.581c-25.376,0-38.178-17.363-54.985-34.17c-6.343-6.344-17.362-6.233-23.595,0
	l-19.588,19.59c-9.462,9.461-22.038,14.581-35.396,14.581c-13.358,0-25.934-5.12-35.396-14.581l-19.59-19.59
	c-6.232-6.344-17.251-6.344-23.595,0l-6.232,6.233v-61.217c0-27.603,22.483-50.087,50.087-50.087h333.913
	C450.56,311.652,473.043,334.136,473.043,361.739z" />
                <path style="fill:#0f403f;" d="M422.957,311.652H256v139.126c0.464,0.012,0.863,0.116,1.336,0.116
	c13.358,0,25.934-5.12,35.396-14.581l19.59-19.59c5.899-5.899,16.584-7.123,24.375,0.779c16.696,16.696,29.162,33.391,54.205,33.391
	c13.358,0,25.934-5.12,35.396-14.581l19.59-19.59c6.343-6.344,17.362-6.344,23.595,0l3.563,3.562v-58.546
	C473.043,334.136,450.56,311.652,422.957,311.652z" />
                <path style="fill:#acbea3;" d="M473.043,380.883v114.421c0,2.003-0.445,3.784-1.003,5.565H39.959
	c-0.557-1.781-1.003-3.562-1.003-5.565v-113.53c5.677-2.226,11.799-3.339,18.031-3.339c5.343,0,10.464,0.779,15.36,2.449
	c7.456,2.337,14.358,6.567,20.035,12.243l19.59,19.588c6.343,6.234,17.362,6.234,23.595,0l19.59-19.588
	c9.462-9.461,22.038-14.692,35.396-14.692c13.358,0,25.934,5.231,35.396,14.692l19.59,19.588c2.783,2.783,6.677,4.341,10.461,4.564
	c4.785,0.445,9.683-1.113,13.133-4.564l19.59-19.588c9.462-9.461,22.038-14.692,35.396-14.692s25.934,5.231,35.396,14.692
	l19.59,19.588c6.343,6.234,17.362,6.234,23.595,0l19.59-19.588c5.01-5.009,10.908-8.793,17.365-11.353
	c5.677-2.226,11.799-3.339,18.031-3.339C463.026,378.435,468.147,379.214,473.043,380.883z" />
                <path style="fill:#acbea3;" d="M473.043,380.883v114.421c0,2.003-0.445,3.784-1.003,5.565H256v-83.59
	c4.785,0.445,9.683-1.113,13.133-4.563l19.59-19.588c9.462-9.461,22.038-14.692,35.396-14.692s25.934,5.231,35.396,14.692
	l19.59,19.588c6.343,6.234,17.362,6.234,23.595,0l19.59-19.588c5.01-5.009,10.908-8.793,17.365-11.353
	c5.677-2.226,11.799-3.339,18.031-3.339C463.026,378.435,468.147,379.214,473.043,380.883z" />
                <path style="fill:#ffffff;" d="M495.304,512H16.696C7.479,512,0,504.527,0,495.304s7.479-16.696,16.696-16.696h478.609
	c9.217,0,16.696,7.473,16.696,16.696S504.521,512,495.304,512z" />
                <path style="fill:#ffffff;" d="M495.304,478.609H256V512h239.304c9.217,0,16.696-7.473,16.696-16.696
	S504.521,478.609,495.304,478.609z" />
            </svg>