<svg height="800px" width="800px"
                xmlns="http://www.w3.org/2000/svg" xmlns:xlink="http://www.w3.org/1999/xlink" viewBox="0 0 512 512"
                xml:space="preserve">
                <path fill="#0f403f" d="M395.636,15.515H186.182v23.273v23.273v77.576h23.273c12.853,0,23.273,10.42,23.273,23.273v93.088
			c0,12.853-10.42,23.273-23.273,23.273h-93.091c-12.853,0-23.273-10.42-23.273-23.273v-93.088c0-12.853,10.42-23.273,23.273-23.273
			h23.273V62.061V38.788V15.515H23.273C10.42,15.515,0,25.935,0,38.788v263.756c0,55.608,45.241,100.849,100.849,100.849h217.212
			c55.608,0,100.849-45.241,100.849-100.849v-56.643C471.958,235.09,512,188.075,512,131.879
			C512,67.717,459.799,15.515,395.636,15.515z M418.909,197.696V66.065c27.088,9.607,46.545,35.475,46.545,65.815
			C465.455,162.22,445.997,188.089,418.909,197.696z" />
                <path fill="#ffffff" d="M395.636,449.939H23.273C10.42,449.939,0,460.359,0,473.212c0,12.853,10.42,23.273,23.273,23.273h372.364
			c12.853,0,23.273-10.42,23.273-23.273C418.909,460.358,408.489,449.939,395.636,449.939z" />
            </svg>